<svg xmlns="http://www.w3.org/2000/svg" width="1920" height="890" viewBox="0 0 1920 890" fill="none"><rect width="1920" height="890" fill="#050810"></rect><rect width="1920" height="890" fill="#131A2C" fill-opacity="0.65"></rect><mask id="mask0_91_133" style="mask-type:alpha" maskUnits="userSpaceOnUse" x="0" y="0" width="1920" height="890"><rect width="1920" height="890" fill="#050810"></rect><rect width="1920" height="890" fill="#131A2C" fill-opacity="0.65"></rect></mask><g mask="url(#mask0_91_133)"><path d="M2271 804.217C2271 997.492 2110.27 1154.17 1912 1154.17C1713.73 1154.17 1553 997.492 1553 804.217C1553 610.941 1713.73 454.261 1912 454.261C2110.27 454.261 2271 610.941 2271 804.217Z" fill="url(#paint0_linear_91_133)"></path><path d="M-414.682 1038.64C-681.611 981.007 -850.071 723.347 -790.948 463.142C-731.825 202.937 -467.506 38.7207 -200.577 96.3548C66.3527 153.989 234.813 411.648 175.689 671.854C116.566 932.059 -147.752 1096.27 -414.682 1038.64Z" fill="url(#paint1_linear_91_133)"></path><path d="M4.35892 431.66C-215.649 384.157 -354.496 171.79 -305.766 -42.6756C-257.035 -257.141 -39.1799 -392.491 180.828 -344.988C400.836 -297.485 539.683 -85.1177 490.953 129.348C442.222 343.813 224.367 479.163 4.35892 431.66Z" fill="url(#paint2_linear_91_133)"></path></g><defs><linearGradient id="paint0_linear_91_133" x1="1912" y1="454.261" x2="1912" y2="1330" gradientUnits="userSpaceOnUse"><stop stop-color="#202530"></stop><stop offset="0.584351" stop-color="#0E1422" stop-opacity="0"></stop></linearGradient><linearGradient id="paint1_linear_91_133" x1="175.69" y1="671.854" x2="-788.587" y2="452.752" gradientUnits="userSpaceOnUse"><stop stop-color="#1E222E"></stop><stop offset="0.217668" stop-color="#0E1422" stop-opacity="0"></stop></linearGradient><linearGradient id="paint2_linear_91_133" x1="490.953" y1="129.347" x2="-303.82" y2="-51.2398" gradientUnits="userSpaceOnUse"><stop stop-color="#202530"></stop><stop offset="0.314943" stop-color="#0E1422" stop-opacity="0"></stop></linearGradient></defs></svg>